# AST/ASF file generated using VICON BodyLanguage
# -----------------------------------------------
:version 1.10
:name VICON
:units
  mass 1.0
  length 0.45
  angle deg
:documentation
   .ast/.asf automatically generated from VICON data using
   VICON BodyBuilder and BodyLanguage model FoxedUp or BRILLIANT.MOD
:root
   order TX TY TZ RX RY RZ
   axis XYZ
   position 0 0 0  
   orientation 0 0 0 
:bonedata
  begin
     id 1 
     name lhipjoint
     direction 0.707368 -0.647095 0.284426 
     length 2.60678 
     axis 0 0 0  XYZ
  end
  begin
     id 2 
     name lfemur
     direction 0.34202 -0.939693 0  
     length 6.63812  
     axis 0 0 20  XYZ
    dof rx ry rz
    limits (-160.0 20.0)
           (-70.0 70.0)
           (-60.0 70.0)
  end
  begin
     id 3 
     name ltibia
     direction 0.34202 -0.939693 0   
     length 7.51178   
     axis 0 0 20   XYZ
    dof rx
    limits (-10.0 170.0)
  end
  begin
     id 4 
     name lfoot
     direction 0.121251 -0.333133 0.935051   
     length 1.83716   
     axis -90 7.62852e-016 20   XYZ
    dof rx rz
    limits (-45.0 90.0)
           (-70.0 20.0)
  end
  begin
     id 5 
     name ltoes
     direction 1.53611e-011 -4.21962e-011 1   
     length 0.916133   
     axis -90 7.62852e-016 20   XYZ
    dof rx
    limits (-90.0 20.0)
  end
  begin
     id 6 
     name rhipjoint
     direction -0.692419 -0.660507 0.290321   
     length 2.55385  
     axis 0 0 0  XYZ 
  end
  begin
     id 7 
     name rfemur
     direction -0.34202 -0.939693 0   
     length 7.29079   
     axis 0 0 -20   XYZ
    dof rx ry rz
    limits (-160.0 20.0)
           (-70.0 70.0)
           (-70.0 60.0)
  end
  begin
     id 8 
     name rtibia
     direction -0.34202 -0.939693 0   
     length 7.47143   
     axis 0 0 -20   XYZ
    dof rx
    limits (-10.0 170.0)
 end
 begin
     id 9 
     name rfoot
     direction -0.119907 -0.329441 0.936532   
     length 1.79439  
     axis -90 -7.62852e-016 -20   XYZ
    dof rx rz
    limits (-45.0 90.0)
           (-20.0 70.0)
  end
  begin
     id 10 
     name rtoes
     direction -1.53571e-011 -4.21961e-011 1   
     length 0.896039   
     axis -90 -7.62852e-016 -20   XYZ
    dof rx
    limits (-90.0 20.0)
  end
  begin
     id 11 
     name lowerback
     direction 0.0367721 0.992912 -0.113016   
     length 1.73542   
     axis 0 0 0   XYZ
    dof rx ry rz
    limits (-20.0 45.0)
           (-30.0 30.0)
           (-30.0 30.0)
  end
  begin
     id 12 
     name upperback
     direction -0.000314626 0.990678 0.136227   
     length 1.7514   
     axis 0 0 0   XYZ
    dof rx ry rz
    limits (-20.0 45.0)
           (-30.0 30.0)
           (-30.0 30.0)
  end
  begin
     id 13 
     name thorax
     direction -0.0226159 0.981151 0.191917   
     length 1.71471   
     axis 0 0 0   XYZ
    dof rx ry rz
    limits (-20.0 45.0)
           (-30.0 30.0)
           (-30.0 30.0)
  end
  begin
     id 14 
     name lowerneck
     direction 0.0219333 0.998071 0.0580739   
     length 1.65882   
     axis 0 0 0   XYZ
    dof rx ry rz
    limits (-20.0 45.0)
           (-30.0 30.0)
           (-30.0 30.0)
  end
  begin
     id 15 
     name upperneck
     direction 0.0384529 0.980058 -0.194957   
     length 1.6612   
     axis 0 0 0   XYZ
    dof rx ry rz
    limits (-20.0 45.0)
           (-30.0 30.0)
           (-30.0 30.0)
  end
  begin
     id 16
     name head
     direction 0.00592123 0.997421 -0.0715234  
     length 1.68077  
     axis 0 0 0   XYZ
    dof rx ry rz
    limits (-20.0 45.0)
           (-30.0 30.0)
           (-30.0 30.0)
  end
  begin
     id 17 
     name lclavicle
     direction 0.904803 0.417826 0.0821728  
     length 3.42227  
     axis 0 0 0   XYZ
    dof ry rz
    limits (-20.0 10.0)
           (0.0 20.0)
  end
  begin
     id 18 
     name lhumerus
     direction 1 -4.48965e-011 -2.68786e-027   
     length 5.11878   
     axis -180 -30 -90   XYZ
    dof rx ry rz
    limits (-60.0 90.0)
           (-90.0 90.0)
           (-90.0 90.0)
  end
  begin
     id 19
     name lradius
     direction 1 -4.48965e-011 2.61168e-028   
     length 3.59971   
     axis -180 -30 -90   XYZ
    dof rx
    limits (-10.0 170.0)
  end
  begin
     id 20
     name lwrist
     direction 1 -4.48965e-011 1.58672e-027   
     length 1.79985   
     axis -1.65735e-015 90 90   XYZ
    dof ry
    limits (-180.0 0.0)
 end
  begin
     id 21 
     name lhand
     direction 1 -4.48942e-011 3.17344e-027   
     length 0.62877   
     axis -2.02492e-015 90 90   XYZ
    dof rx rz
    limits (-90.0 90.0)
           (-45.0 45.0)
  end
  begin
     id 22 
     name lfingers
     direction 1 -4.49011e-011 6.34687e-027   
     length 0.506931   
     axis -4.04985e-015 90 90   XYZ
    dof rx
    limits (0.0 90.0)
  end
  begin
     id 23
     name lthumb
     direction 0.707107 -6.34982e-011 0.707107   
     length 0.727854   
     axis -90 45 2.85299e-015   XYZ
    dof rx rz
    limits (-45.0 45.0)
           (-45.0 45.0)
  end
  begin
     id 24 
     name rclavicle
     direction -0.945647 0.32488 0.0143075   
     length 3.52737  
     axis 0 0 0   XYZ 
    dof ry rz
    limits (-10.0 20.0)
           (-20.0 0.0)
  end
  begin
     id 25 
     name rhumerus
     direction -1 -4.48962e-011 1.92182e-027  
     length 5.4902   
     axis -180 30 90   XYZ
    dof rx ry rz
    limits (-90.0 60.0)
           (-90.0 90.0)
           (-90.0 90.0)
  end
  begin
     id 26 
     name rradius
     direction -1 -4.48967e-011 -5.97193e-028   
     length 3.20659   
     axis -180 30 90   XYZ
    dof rx
    limits (-10.0 170.0)
  end
  begin
     id 27 
     name rwrist
     direction -1 -4.48964e-011 1.58672e-027   
     length 1.6033   
     axis -1.65735e-015 -90 -90   XYZ
    dof ry
    limits (-180.0 0.0)
  end
  begin
     id 28
     name rhand
     direction -1 -4.49006e-011 3.17344e-027   
     length 0.691885   
     axis -2.02492e-015 -90 -90   XYZ
    dof rx rz
    limits (-90.0 90.0)
           (-45.0 45.0)
  end
  begin
     id 29
     name rfingers
     direction -1 -4.48908e-011 6.34687e-027   
     length 0.557815   
     axis -4.04985e-015 -90 -90   XYZ
    dof rx
    limits (0.0 90.0)
  end
  begin
     id 30
     name rthumb
     direction -0.707107 -6.34999e-011 0.707107   
     length 0.800915   
     axis -90 -45 -2.85299e-015   XYZ
    dof rx rz
    limits (-45.0 45.0)
           (-45.0 45.0)
  end
:hierarchy
  begin
    root lhipjoint rhipjoint lowerback
    lhipjoint lfemur
    lfemur ltibia
    ltibia lfoot
    lfoot ltoes
    rhipjoint rfemur
    rfemur rtibia
    rtibia rfoot
    rfoot rtoes
    lowerback upperback
    upperback thorax
    thorax lowerneck lclavicle rclavicle
    lowerneck upperneck
    upperneck head
    lclavicle lhumerus
    lhumerus lradius
    lradius lwrist
    lwrist lhand lthumb
    lhand lfingers
    rclavicle rhumerus
    rhumerus rradius
    rradius rwrist
    rwrist rhand rthumb
    rhand rfingers
  end

#!OML:ASF I:\Actors\actors\Patient Classification 1\Patient 1\Session 1\Subject1.ASF
:FULLY-SPECIFIED
:DEGREES
73
root -0.4502 17.4791 8.16259 9.37345 -2.02226 -8.03844
lowerback -0.42897 0.620005 4.07939
upperback -10.5436 1.16702 1.18863
thorax -10.9562 0.25958 -1.10234
lowerneck -0.822954 -13.5906 -13.2282
upperneck 18.0621 -20.6994 13.8229
head 8.59163 -9.95596 4.69411
rclavicle -2.48481e-015 1.86858e-014
rhumerus -46.531 -17.5798 -74.6743
rradius 24.3358
rwrist 41.2398
rhand 0.661184 -30.6479
rfingers 7.12502
rthumb 26.2235 -58.8562
lclavicle -2.48481e-015 1.86858e-014
lhumerus -43.8918 10.7439 80.7186
lradius 22.7202
lwrist -26.261
lhand -14.5102 -9.20054
lfingers 7.12502
lthumb 11.6371 20.4563
rfemur -3.17976 25.0295 24.2188
rtibia 1.17609
rfoot -11.145 -25.3152
rtoes 1.82434
lfemur 7.07339 -46.4755 -14.8943
ltibia -4.83183
lfoot -25.7603 54.9668
ltoes 15.5891
74
root -0.447153 17.4758 8.15861 9.28979 -1.94992 -8.23165
lowerback -0.322409 0.618203 4.35869
upperback -10.5208 1.18835 1.21355
thorax -10.9933 0.245102 -1.23405
lowerneck -0.861191 -13.5808 -13.3552
upperneck 18.1573 -20.6999 13.874
head 8.65113 -9.95632 4.7245
rclavicle -6.36111e-015 1.43125e-014
rhumerus -46.5232 -17.6618 -74.6696
rradius 24.3676
rwrist 41.2587
rhand 0.720243 -30.5922
rfingers 7.12502
rthumb 26.2801 -58.792
lclavicle -6.36111e-015 1.43125e-014
lhumerus -43.8732 10.5968 80.8141
lradius 22.7332
lwrist -26.1033
lhand -14.639 -9.16208
lfingers 7.12502
lthumb 11.5129 20.5017
rfemur -3.06394 24.8348 24.4934
rtibia 1.16695
rfoot -11.0972 -25.1719
rtoes 1.65463
lfemur 7.19966 -46.4143 -14.7601
ltibia -4.87254
lfoot -25.5284 54.925
ltoes 15.2651
75
root -0.443707 17.4727 8.15319 9.23873 -1.89146 -8.40918
lowerback -0.228227 0.619023 4.62731
upperback -10.5039 1.212 1.23119
thorax -11.0295 0.232192 -1.36771
lowerneck -0.938772 -13.6042 -13.3316
upperneck 18.2476 -20.7278 13.8158
head 8.69065 -9.96557 4.69112
rclavicle 5.1684e-015 3.97569e-015
rhumerus -46.4763 -17.6423 -74.7714
rradius 24.4517
rwrist 41.1152
rhand 0.731495 -30.5872
rfingers 7.12502
rthumb 26.2908 -58.7854
lclavicle 5.1684e-015 3.97569e-015
lhumerus -43.8142 10.5245 80.8558
lradius 22.7152
lwrist -26.07
lhand -14.6799 -9.14018
lfingers 7.12502
lthumb 11.4734 20.5258
rfemur -3.02336 24.6014 24.7168
rtibia 1.18823
rfoot -11.0658 -24.9855
rtoes 1.74353
lfemur 7.18875 -46.2038 -14.5407
ltibia -4.87879
lfoot -25.2581 54.7203
ltoes 15.1627
76
root -0.441957 17.4725 8.14802 9.26905 -1.88804 -8.39681
lowerback -0.232469 0.618265 4.63778
upperback -10.5122 1.21037 1.21697
thorax -11.0363 0.22933 -1.38858
lowerneck -0.959083 -13.6236 -13.1908
upperneck 18.2292 -20.7419 13.7382
head 8.66523 -9.96804 4.6428
rclavicle -4.37326e-015 1.03368e-014
rhumerus -46.3991 -17.5655 -74.9187
rradius 24.5129
rwrist 40.9777
rhand 0.744183 -30.6563
rfingers 7.12502
rthumb 26.303 -58.8527
lclavicle -4.37326e-015 1.03368e-014
lhumerus -43.7825 10.5356 80.8368
lradius 22.7264
lwrist -26.0762
lhand -14.6136 -9.15757
lfingers 7.12502
lthumb 11.5374 20.5049
rfemur -3.12621 24.4847 24.6581
rtibia 1.24135
rfoot -11.0474 -24.8732
rtoes 1.61814
lfemur 7.04852 -46.0997 -14.4642
ltibia -4.8446
lfoot -25.0668 54.6342
ltoes 15.0609
77
root -0.441453 17.4722 8.14403 9.24433 -1.8708 -8.40887
lowerback -0.214399 0.598569 4.63182
upperback -10.4973 1.18545 1.23428
thorax -11.0319 0.218976 -1.36467
lowerneck -0.967048 -13.5781 -13.2788
upperneck 18.2836 -20.6887 13.7833
head 8.6922 -9.94382 4.67704
rclavicle -1.49089e-015 7.95139e-015
rhumerus -46.298 -17.5639 -74.9862
rradius 24.5146
rwrist 41.0568
rhand 0.824559 -30.6658
rfingers 7.12502
rthumb 26.3799 -58.8507
lclavicle -1.49089e-015 7.95139e-015
lhumerus -43.7697 10.6058 80.8076
lradius 22.7548
lwrist -26.1229
lhand -14.5411 -9.18469
lfingers 7.12502
lthumb 11.6073 20.4738
rfemur -3.13416 24.4216 24.6727
rtibia 1.27726
rfoot -11.0454 -24.8191
rtoes 1.42273
lfemur 7.00182 -45.9815 -14.4147
ltibia -4.81779
lfoot -24.8166 54.5453
ltoes 14.7751
78
root -0.442424 17.4722 8.14097 9.20407 -1.86907 -8.31585
lowerback -0.197835 0.580301 4.49879
upperback -10.4754 1.15205 1.2227
thorax -11.0185 0.214865 -1.30041
lowerneck -1.03753 -13.5871 -13.1518
upperneck 18.35 -20.6852 13.6622
head 8.69856 -9.93715 4.61459
rclavicle -7.95139e-015 1.74931e-014
rhumerus -46.226 -17.6074 -75.0355
rradius 24.5468
rwrist 41.1369
rhand 0.886791 -30.6021
rfingers 7.12502
rthumb 26.4395 -58.778
lclavicle -7.95139e-015 1.74931e-014
lhumerus -43.7188 10.7093 80.7596
lradius 22.7422
lwrist -26.2387
lhand -14.5045 -9.16687
lfingers 7.12502
lthumb 11.6427 20.4897
rfemur -3.10457 24.4187 24.5769
rtibia 1.28095
rfoot -11.0358 -24.8469
rtoes 1.2616
lfemur 6.97256 -45.9036 -14.5044
ltibia -4.76504
lfoot -24.7449 54.4561
ltoes 14.7458
79
root -0.44521 17.4748 8.13941 9.26048 -1.93207 -8.02193
lowerback -0.303985 0.589252 4.13535
upperback -10.4805 1.13005 1.14702
thorax -10.9601 0.234502 -1.17647
lowerneck -1.05675 -13.5887 -13.0901
upperneck 18.3777 -20.6856 13.627
head 8.70045 -9.93423 4.59291
rclavicle -1.23246e-014 -7.15625e-015
rhumerus -46.1913 -17.6278 -75.1361
rradius 24.6274
rwrist 41.0951
rhand 0.865343 -30.6053
rfingers 7.12502
rthumb 26.419 -58.7843
lclavicle -1.23246e-014 -7.15625e-015
lhumerus -43.657 10.7813 80.7051
lradius 22.7133
lwrist -26.3161
lhand -14.51 -9.14283
lfingers 7.12502
lthumb 11.6373 20.514
rfemur -3.22523 24.521 24.179
rtibia 1.29964
rfoot -11.0259 -24.9315
rtoes 1.18012
lfemur 6.76318 -45.8554 -14.7064
ltibia -4.66803
lfoot -24.7913 54.3945
ltoes 14.8538
80
root -0.446469 17.4777 8.13782 9.3221 -1.98806 -7.80486
lowerback -0.426654 0.599345 3.86443
upperback -10.481 1.11749 1.10281
thorax -10.8866 0.252212 -1.07073
lowerneck -1.03175 -13.5648 -13.1266
upperneck 18.3718 -20.6591 13.6666
head 8.69862 -9.92279 4.61709
rclavicle -7.55382e-015 -2.38542e-015
rhumerus -46.1162 -17.5273 -75.2842
rradius 24.6988
rwrist 40.9242
rhand 0.768419 -30.5671
rfingers 7.12502
rthumb 26.3262 -58.76
lclavicle -7.55382e-015 -2.38542e-015
lhumerus -43.6228 10.798 80.707
lradius 22.7204
lwrist -26.3132
lhand -14.5606 -9.14177
lfingers 7.12502
lthumb 11.5885 20.5178
rfemur -3.36038 24.5812 23.86
rtibia 1.32985
rfoot -11.0336 -24.9471
rtoes 1.50276
lfemur 6.53506 -45.6836 -14.7948
ltibia -4.59861
lfoot -24.6453 54.262
ltoes 14.7013
81
root -0.441269 17.4752 8.13273 9.23933 -1.92548 -8.06672
lowerback -0.342405 0.604132 4.21471
upperback -10.4383 1.15316 1.17077
thorax -10.8872 0.241793 -1.19681
lowerneck -0.922833 -13.5111 -13.2416
upperneck 18.3122 -20.5997 13.7742
head 8.6751 -9.90185 4.6864
rclavicle -1.10325e-014 -1.03368e-014
rhumerus -45.9991 -17.371 -75.416
rradius 24.7316
rwrist 40.6875
rhand 0.682044 -30.3788
rfingers 7.12502
rthumb 26.2435 -58.584
lclavicle -1.10325e-014 -1.03368e-014
lhumerus -43.5634 10.782 80.7678
lradius 22.7285
lwrist -26.2836
lhand -14.5895 -9.13774
lfingers 7.12502
lthumb 11.5606 20.5234
rfemur -3.2726 24.3559 24.1965
rtibia 1.34983
rfoot -10.9827 -24.7672
rtoes 1.56206
lfemur 6.51653 -45.2141 -14.4473
ltibia -4.63373
lfoot -23.9622 53.907
ltoes 14.176
82
root -0.437477 17.4719 8.12863 9.15 -1.8745 -8.32912
lowerback -0.255192 0.624365 4.56611
upperback -10.398 1.20898 1.21998
thorax -10.8908 0.240065 -1.34545
lowerneck -0.804964 -13.4912 -13.2309
upperneck 18.2144 -20.5718 13.7937
head 8.61749 -9.89526 4.7055
rclavicle -4.47266e-015 1.90833e-014
rhumerus -45.9162 -17.256 -75.5459
rradius 24.784
rwrist 40.468
rhand 0.675443 -30.2944
rfingers 7.12502
rthumb 26.2372 -58.5006
lclavicle -4.47266e-015 1.90833e-014
lhumerus -43.4972 10.7459 80.8175
lradius 22.7367
lwrist -26.2447
lhand -14.537 -9.18367
lfingers 7.12502
lthumb 11.6113 20.4746
rfemur -3.1648 24.1929 24.5504
rtibia 1.36597
rfoot -10.9239 -24.6451
rtoes 1.30436
lfemur 6.55083 -44.8563 -14.138
ltibia -4.67354
lfoot -23.3865 53.648
ltoes 13.802
83
root -0.438735 17.4714 8.12696 9.11834 -1.89613 -8.36101
lowerback -0.266588 0.640313 4.59619
upperback -10.3737 1.23037 1.21738
thorax -10.8544 0.248699 -1.36677
lowerneck -0.875339 -13.5009 -13.2765
upperneck 18.2552 -20.5938 13.8448
head 8.65835 -9.90019 4.71939
rclavicle -2.48481e-015 -1.43125e-014
rhumerus -45.8498 -17.1377 -75.7191
rradius 24.8798
rwrist 40.3136
rhand 0.745218 -30.3607
rfingers 7.12502
rthumb 26.304 -58.5569
lclavicle -2.48481e-015 -1.43125e-014
lhumerus -43.4546 10.7129 80.8357
lradius 22.765
lwrist -26.1942
lhand -14.4972 -9.22735
lfingers 7.12502
lthumb 11.6497 20.4288
rfemur -3.14168 24.2148 24.6063
rtibia 1.38601
rfoot -10.9111 -24.6341
rtoes 1.21046
lfemur 6.60125 -44.8234 -14.1223
ltibia -4.69882
lfoot -23.311 53.6538
ltoes 13.7106
